<svg xmlns="http://www.w3.org/2000/svg" width="40" height="40" fill="none" viewBox="0 0 40 40">
  <path stroke="#A2001D" stroke-linecap="round" stroke-linejoin="round" stroke-width="2" d="M25.85 4.717h-11.7c-4.15 0-5.067 2.066-5.6 4.6l-1.883 9.016h26.666L31.45 9.317c-.533-2.534-1.45-4.6-5.6-4.6Zm10.8 28.316c.183 1.95-1.383 3.634-3.383 3.634h-3.134c-1.8 0-2.05-.767-2.366-1.717l-.334-1c-.466-1.367-.766-2.283-3.166-2.283h-8.534c-2.4 0-2.75 1.033-3.166 2.283l-.334 1c-.316.95-.566 1.717-2.366 1.717H6.733c-2 0-3.566-1.684-3.383-3.634l.933-10.15c.234-2.5.717-4.55 5.084-4.55h21.266c4.367 0 4.85 2.05 5.084 4.55l.933 10.15Zm-29.983-19.7H5m30 0h-1.667M20 5v3.333m-2.5 0h5M10 25h5m10 0h5"/>
</svg>
