<?xml version="1.0" encoding="UTF-8"?>
<svg id="Layer_1" data-name="Layer 1" xmlns="http://www.w3.org/2000/svg" viewBox="0 0 224.83 224.83">
  <defs>
    <style>
      .cls-1 {
        fill: #fdf3f3;
      }

      .cls-1, .cls-2, .cls-3 {
        stroke-width: 0px;
      }

      .cls-2 {
        fill: #fccccc;
      }

      .cls-3 {
        fill: #e63d3d;
      }
    </style>
  </defs>
  <path class="cls-3" d="m107.92,0h9.99c11.01.59,19.41,5.6,25.73,14.62,4.24,6.05,10.28,7.63,17.59,6.5,25.47-3.94,46.42,17,42.48,42.48-1.13,7.31.45,13.35,6.5,17.59,9.02,6.33,14.03,14.72,14.62,25.73v9.99c-.49.53-.51,1.19-.5,1.85.11,9.52-3.82,17.16-11.45,22.61-7.73,5.52-10.31,12.16-9,21.85,3.25,24.04-18.09,44.29-42.15,40.56-7.47-1.16-13.7.19-18.09,6.43-6.33,9.02-14.72,14.03-25.74,14.62h-9.99c-.53-.49-1.19-.51-1.85-.5-9.52.1-17.16-3.82-22.6-11.46-5.51-7.73-12.16-10.3-21.86-9-24.05,3.25-44.26-18.08-40.57-42.15,1.1-7.21.07-13.44-6.06-17.74-9.5-6.65-14.7-15.44-14.97-27.08v-10.99c.82-10.86,6.27-18.86,14.99-25.08,5.69-4.07,7.38-9.87,6.18-16.75-4.46-25.52,17.48-47.39,42.93-42.92,6.88,1.21,12.73-.47,16.74-6.2C87.48,5.47,96.28.27,107.92,0Z"/>
  <path class="cls-1" d="m157.35,78.4c-.08,3.5-1.39,6.39-3.88,8.88-22.04,21.99-44.02,44.04-66.08,66.02-5.15,5.13-11.79,5.39-16.45.91-4.8-4.6-4.65-11.51.63-16.8,21.98-22.06,44.02-44.04,66.02-66.07,3.67-3.67,7.94-4.85,12.76-2.98,4.47,1.73,6.63,5.32,7.01,10.04Z"/>
  <path class="cls-2" d="m123.81,140.42c.08-9.78,7.34-16.76,17.29-16.6,9.01.15,16.35,7.58,16.42,16.64.07,9.28-7.95,17.22-17.23,17.06-9.22-.16-16.55-7.77-16.48-17.1Z"/>
  <path class="cls-2" d="m101.12,84.61c-.09,9.61-7.17,16.55-16.81,16.51-9.76-.04-16.87-7.37-16.68-17.19.19-9.48,7.49-16.44,17.1-16.3,9.48.14,16.48,7.39,16.39,16.98Z"/>
</svg>