<?xml version="1.0" encoding="UTF-8"?>
<svg id="a" data-name="Layer 1" xmlns="http://www.w3.org/2000/svg" xmlns:xlink="http://www.w3.org/1999/xlink" viewBox="0 0 25 24.99">
  <defs>
    <style>
      .d {
        fill: url(#c);
      }

      .d, .e, .f {
        stroke-width: 0px;
      }

      .e {
        fill: url(#b);
      }

      .f {
        fill: #fff;
      }
    </style>
    <radialGradient id="b" cx="-27.99" cy="-287.09" fx="-27.99" fy="-287.09" r="3.05" gradientTransform="translate(-2165.29 -200.68) rotate(-90) scale(8.13 -7.57)" gradientUnits="userSpaceOnUse">
      <stop offset="0" stop-color="#fd5"/>
      <stop offset=".1" stop-color="#fd5"/>
      <stop offset=".5" stop-color="#ff543e"/>
      <stop offset="1" stop-color="#c837ab"/>
    </radialGradient>
    <radialGradient id="c" cx="-62" cy="-211.21" fx="-62" fy="-211.21" r="3.05" gradientTransform="translate(3143.94 -398.7) rotate(78.68) scale(3.64 -14.99)" gradientUnits="userSpaceOnUse">
      <stop offset="0" stop-color="#3771c8"/>
      <stop offset=".13" stop-color="#3771c8"/>
      <stop offset="1" stop-color="#60f" stop-opacity="0"/>
    </radialGradient>
  </defs>
  <path class="e" d="m12.5,0c-5.22,0-6.74,0-7.04.03-1.07.09-1.74.26-2.46.62-.56.28-1,.6-1.44,1.05C.77,2.52.29,3.54.12,4.74.03,5.33,0,5.44,0,8.43,0,9.43,0,10.73,0,12.49,0,17.71,0,19.23.03,19.53c.09,1.04.25,1.7.6,2.41.66,1.37,1.92,2.4,3.41,2.79.52.13,1.08.21,1.82.24.31.01,3.46.02,6.62.02s6.31,0,6.62-.02c.85-.04,1.34-.11,1.88-.25,1.49-.38,2.74-1.41,3.41-2.79.34-.7.51-1.38.59-2.37.02-.22.02-3.65.02-7.08s0-6.86-.02-7.07c-.08-1-.25-1.68-.6-2.39-.29-.58-.61-1.02-1.07-1.47-.83-.79-1.84-1.27-3.04-1.44-.58-.08-.7-.11-3.69-.11h-4.07Z"/>
  <path class="d" d="m12.5,0c-5.22,0-6.74,0-7.04.03-1.07.09-1.74.26-2.46.62-.56.28-1,.6-1.44,1.05C.77,2.52.29,3.54.12,4.74.03,5.33,0,5.44,0,8.43,0,9.43,0,10.73,0,12.49,0,17.71,0,19.23.03,19.53c.09,1.04.25,1.7.6,2.41.66,1.37,1.92,2.4,3.41,2.79.52.13,1.08.21,1.82.24.31.01,3.46.02,6.62.02s6.31,0,6.62-.02c.85-.04,1.34-.11,1.88-.25,1.49-.38,2.74-1.41,3.41-2.79.34-.7.51-1.38.59-2.37.02-.22.02-3.65.02-7.08s0-6.86-.02-7.07c-.08-1-.25-1.68-.6-2.39-.29-.58-.61-1.02-1.07-1.47-.83-.79-1.84-1.27-3.04-1.44-.58-.08-.7-.11-3.69-.11h-4.07Z"/>
  <path class="f" d="m12.5,3.27c-2.51,0-2.82.01-3.81.06-.98.04-1.65.2-2.24.43-.61.24-1.12.55-1.63,1.06-.51.51-.83,1.03-1.07,1.63-.23.59-.38,1.26-.43,2.24-.04.98-.06,1.3-.06,3.81s.01,2.82.06,3.8c.05.98.2,1.65.43,2.24.24.61.55,1.12,1.06,1.63.51.51,1.03.83,1.63,1.07.59.23,1.26.38,2.24.43.98.04,1.3.06,3.81.06s2.82-.01,3.8-.06c.98-.04,1.65-.2,2.24-.43.61-.24,1.12-.55,1.63-1.07.51-.51.83-1.03,1.07-1.63.23-.59.38-1.26.43-2.24.04-.98.06-1.3.06-3.8s-.01-2.82-.06-3.81c-.05-.98-.2-1.65-.43-2.24-.24-.61-.55-1.12-1.07-1.63-.51-.51-1.03-.83-1.63-1.06-.59-.23-1.26-.38-2.24-.43-.98-.04-1.3-.06-3.81-.06h0Zm-.83,1.66c.25,0,.52,0,.83,0,2.46,0,2.76,0,3.73.05.9.04,1.39.19,1.71.32.43.17.74.37,1.06.69.32.32.52.63.69,1.06.13.32.28.81.32,1.71.04.97.05,1.27.05,3.73s0,2.76-.05,3.73c-.04.9-.19,1.39-.32,1.71-.17.43-.37.74-.69,1.06-.32.32-.63.52-1.06.69-.32.13-.81.28-1.71.32-.97.04-1.27.05-3.73.05s-2.76,0-3.73-.05c-.9-.04-1.39-.19-1.71-.32-.43-.17-.74-.37-1.06-.69-.32-.32-.52-.63-.69-1.06-.13-.32-.28-.81-.32-1.71-.04-.97-.05-1.27-.05-3.73s0-2.76.05-3.73c.04-.9.19-1.39.32-1.71.17-.43.37-.74.69-1.06.32-.32.63-.52,1.06-.69.33-.13.81-.28,1.71-.32.85-.04,1.18-.05,2.9-.05h0Zm5.75,1.53c-.61,0-1.11.5-1.11,1.11,0,.61.5,1.11,1.11,1.11s1.11-.5,1.11-1.11h0c0-.61-.5-1.11-1.11-1.11h0Zm-4.93,1.29c-2.62,0-4.74,2.12-4.74,4.74s2.12,4.74,4.74,4.74c2.62,0,4.74-2.12,4.74-4.74s-2.12-4.74-4.74-4.74h0Zm0,1.66c1.7,0,3.08,1.38,3.08,3.08s-1.38,3.08-3.08,3.08-3.08-1.38-3.08-3.08,1.38-3.08,3.08-3.08Z"/>
</svg>