<?xml version="1.0" encoding="UTF-8"?>
<svg id="a" data-name="Layer 1" xmlns="http://www.w3.org/2000/svg" viewBox="0 0 51.52 5.71">
    <defs>
        <style>
            .b {
            fill: #b22323;
            }

            .b, .c, .d, .e, .f {
            stroke-width: 0px;
            }

            .c {
            fill: #942020;
            }

            .d {
            fill: #d42e2e;
            }

            .e {
            fill: #7b2121;
            }

            .f {
            fill: #430c0c;
            }
        </style>
    </defs>
    <path class="d" d="m46.55,2.14c-.1.55-.19,1.09-.29,1.63,0,.05-.02.09-.03.14-.02.09,0,.15.11.14.63-.02,1.27.04,1.9-.02.75-.08,1.31-.72,1.29-1.44,0-.45-.37-.86-.83-.91-.22-.02-.45-.03-.67-.03-3.14,0-6.27,0-9.41.01-.24,0-.49,0-.73,0-.11,0-.15-.04-.13-.15.08-.44.16-.88.24-1.32.02-.12.08-.18.21-.17.1,0,.21,0,.31,0,3.37,0,6.74,0,10.11,0,.44,0,.87.02,1.3.14,1.07.31,1.62,1.33,1.58,2.28-.05,1.51-1.3,3.1-3.25,3.23-1.37.1-2.74.04-4.11.02-.18,0-.19-.02-.16-.2.18-1.05.36-2.09.55-3.14.04-.2.05-.22.25-.22.54,0,1.08,0,1.62,0,.04,0,.07.01.12.02Z"/>
    <path class="b" d="m26.7,1.59c.09-.47.18-.94.26-1.42.03-.15.11-.17.24-.17.6,0,1.19,0,1.79,0,.77,0,1.55-.01,2.32.03.32.02.63.09.92.2.38.14.6.42.65.81.09.69-.03,1.35-.45,1.91-.36.49-.89.68-1.48.73-.82.08-1.64.06-2.46.06-.26,0-.24.04-.27.21-.08.48-.17.96-.26,1.43-.07.37-.06.3-.35.3-.47,0-.93-.01-1.4-.02-.24,0-.24,0-.2-.23.07-.4.14-.81.21-1.21.11-.62.22-1.23.33-1.84.05-.28.06-.28.34-.28,1.18,0,2.37,0,3.55,0,.08,0,.17,0,.25-.01.13-.03.22-.15.21-.29,0-.16-.13-.17-.24-.17-.36,0-.73,0-1.09,0-.86,0-1.72,0-2.58,0-.1,0-.21.01-.32-.05Z"/>
    <path class="d" d="m44.21,2.16c-.07.42-.15.84-.22,1.26-.03.17-.14.16-.27.16-.83,0-1.66,0-2.49,0-.57,0-1.14,0-1.71,0-.07,0-.17-.02-.19.08-.02.11-.07.22-.04.33,0,.04.06.05.09.05.07,0,.13,0,.2,0,1.33,0,2.67,0,4,0,.06,0,.11,0,.17,0,.08,0,.12.03.1.12-.08.46-.17.92-.24,1.38-.02.11-.08.16-.19.15-.04,0-.07,0-.11,0-1.92.01-3.84.02-5.76-.01-.16,0-.38.07-.47-.07-.08-.11.03-.3.05-.46.16-.9.31-1.8.47-2.7,0-.02,0-.04,0-.06.05-.29.05-.29.33-.29,2.01,0,4.01,0,6.02,0,.08,0,.17-.02.26.04Z"/>
    <path class="f" d="m6.83,2.15c-.02.31-.12.61-.16.93-.01.1-.04.2-.06.3-.04.2-.04.2-.26.2-.9,0-1.79,0-2.69,0-.4,0-.8,0-1.2,0-.15,0-.3.29-.23.42.03.05.07.05.12.05.1,0,.21,0,.31,0,1.31,0,2.61,0,3.92,0,.24,0,.25,0,.2.23-.07.38-.14.75-.21,1.13-.05.28-.06.28-.33.28-1.46,0-2.91,0-4.37,0-.55,0-1.1,0-1.65,0-.24,0-.24,0-.2-.23.16-.89.32-1.78.48-2.67.02-.13.04-.26.06-.39.05-.28.05-.28.33-.28.39,0,.78,0,1.18,0,1.5,0,3,0,4.51,0,.08,0,.17-.02.26.03Z"/>
    <path class="e" d="m9.88.03c-.07.38-.13.76-.2,1.13-.16.89-.32,1.78-.48,2.67-.04.22-.04.23.2.23,1.18,0,2.37,0,3.55,0,.06,0,.11,0,.17,0,.12,0,.16.02.14.16-.09.43-.17.86-.23,1.29-.02.17-.1.19-.24.19-.18,0-.35,0-.53,0-1.66,0-3.32,0-4.98,0-.05,0-.09,0-.14,0-.18,0-.19,0-.16-.2.1-.61.21-1.21.31-1.82.2-1.13.4-2.26.6-3.39.05-.26.05-.26.31-.27.51,0,1.03,0,1.54,0,.04,0,.07,0,.13.02Z"/>
    <path class="c" d="m22.63,5.69c-.48,0-1.01.02-1.53-.04-.64-.07-1.1-.45-1.28-1.05-.06-.21-.05-.42-.03-.64.01-.14.07-.17.2-.17.11,0,.22,0,.34,0,.41,0,.82,0,1.23,0,.1,0,.21,0,.22.14,0,.08.08.09.15.09.63.02,1.27.03,1.9.01.1,0,.18-.04.23-.14.09-.18.04-.29-.16-.32-.24-.03-.48-.05-.72-.07-.6-.05-1.21-.07-1.81-.16-.17-.02-.33-.07-.48-.13-.4-.17-.65-.46-.73-.89-.03-.19,0-.22.17-.22.78,0,1.57-.03,2.35.02.61.04,1.21.09,1.81.15.29.03.57.08.84.21.46.21.72.63.71,1.14-.03,1.1-.82,1.94-1.93,2.02-.48.04-.95.03-1.47.03Z"/>
    <path class="f" d="m.69,1.6c.09-.48.18-.95.26-1.42C.97.04,1.03,0,1.17,0c.2,0,.39,0,.59,0,1.84,0,3.68,0,5.52,0,.05,0,.09,0,.14,0,.09,0,.11.04.1.13-.04.18-.07.37-.1.55-.05.27-.11.53-.15.8-.02.12-.07.16-.19.15-.13,0-.26,0-.39,0-1.87,0-3.73,0-5.6,0-.12,0-.24.01-.39-.03Z"/>
    <path class="b" d="m36.94,4.05c-.07.38-.12.74-.19,1.1-.03.17,0,.39-.13.5-.13.11-.34.04-.52.04-1.6,0-3.19,0-4.79,0-.46,0-.42,0-.33-.41.06-.33.12-.66.18-.99.04-.24.04-.24.28-.24,1.59,0,3.17,0,4.76,0,.24,0,.48,0,.75,0Z"/>
    <path class="b" d="m33.02.02h4.63c-.09.51-.18,1.01-.27,1.5-.01.08-.05.11-.13.12-.06,0-.11,0-.17,0-1.12,0-2.24,0-3.36,0-.05,0-.09,0-.14,0-.08,0-.11-.05-.1-.13.02-.15.02-.3,0-.45-.05-.42-.12-.58-.47-1.04Z"/>
    <path class="b" d="m37.26,2.14c.03.09,0,.17-.02.25-.06.33-.13.66-.18.99-.02.15-.08.2-.23.2-1.34,0-2.68,0-4.03,0-.02,0-.05-.01-.07-.02-.02-.09.05-.12.09-.17.24-.33.44-.69.53-1.1.02-.11.06-.18.2-.18,1.21,0,2.42,0,3.64,0,.03,0,.05.01.08.02Z"/>
    <path class="c" d="m15.75,2.17c.13.05.26.03.39.03.63,0,1.27,0,1.9.02.35.02.68.08,1,.24.46.22.68.6.68,1.1,0,1.11-.87,2.04-1.98,2.1-.51.03-1.03.03-1.54.03-.91,0-1.83,0-2.74,0-.08,0-.16,0-.23,0-.06-.04-.05-.08-.04-.12.27-1.55.55-3.1.82-4.65.04-.24.09-.48.13-.72.02-.12.08-.17.2-.17.22,0,.45,0,.67,0,3.16,0,6.33,0,9.49,0,.3,0,.6,0,.89.1.7.22,1.1.85,1,1.58-.03.2-.03.2-.22.2-.52,0-1.04,0-1.57,0-.08,0-.17.02-.18-.11,0-.1-.09-.13-.18-.14-.16,0-.32,0-.48,0-2.32,0-4.65,0-6.97.01-.28,0-.56,0-.84-.01-.09,0-.15.01-.15.11-.01.14-.08.27-.05.42Zm.84,1.33c-.12,0-.24,0-.36,0-.13,0-.26,0-.39,0q-.34,0-.4.33c-.04.21-.03.23.18.23.58,0,1.16,0,1.74,0,.06,0,.11,0,.17-.01.15-.03.27-.18.27-.32,0-.14-.09-.21-.3-.22-.3,0-.6,0-.9,0h0Z"/>
</svg>