<?xml version="1.0" encoding="utf-8"?>
<!-- Generator: Adobe Illustrator 28.0.0, SVG Export Plug-In . SVG Version: 6.00 Build 0)  -->
<svg version="1.1" id="a" xmlns="http://www.w3.org/2000/svg" xmlns:xlink="http://www.w3.org/1999/xlink" x="0px" y="0px"
	 viewBox="0 0 51.5 5.7" style="enable-background:new 0 0 51.5 5.7;" xml:space="preserve">
<style type="text/css">
	.st0{fill:#D42E2E;}
	.st1{fill:#B22323;}
	.st2{fill:#430C0C;}
	.st3{fill:#7B2121;}
	.st4{fill:#942020;}
</style>
<path class="st0" d="M46.5,2.1c-0.1,0.5-0.2,1.1-0.3,1.6c0,0,0,0.1,0,0.1c0,0.1,0,0.1,0.1,0.1c0.6,0,1.3,0,1.9,0
	C49,4,49.6,3.3,49.5,2.6c0-0.5-0.4-0.9-0.8-0.9c-0.2,0-0.5,0-0.7,0c-3.1,0-6.3,0-9.4,0c-0.2,0-0.5,0-0.7,0c-0.1,0-0.2,0-0.1-0.1
	c0.1-0.4,0.2-0.9,0.2-1.3C38,0.1,38.1,0,38.2,0c0.1,0,0.2,0,0.3,0c3.4,0,6.7,0,10.1,0c0.4,0,0.9,0,1.3,0.1c1.1,0.3,1.6,1.3,1.6,2.3
	c0,1.5-1.3,3.1-3.2,3.2c-1.4,0.1-2.7,0-4.1,0c-0.2,0-0.2,0-0.2-0.2c0.2-1,0.4-2.1,0.5-3.1c0-0.2,0-0.2,0.2-0.2c0.5,0,1.1,0,1.6,0
	C46.5,2.1,46.5,2.1,46.5,2.1L46.5,2.1z"/>
<path class="st1" d="M26.7,1.6c0.1-0.5,0.2-0.9,0.3-1.4C27,0,27.1,0,27.2,0c0.6,0,1.2,0,1.8,0c0.8,0,1.5,0,2.3,0
	c0.3,0,0.6,0.1,0.9,0.2c0.4,0.1,0.6,0.4,0.7,0.8c0.1,0.7,0,1.4-0.5,1.9c-0.4,0.5-0.9,0.7-1.5,0.7c-0.8,0.1-1.6,0.1-2.5,0.1
	c-0.3,0-0.2,0-0.3,0.2c-0.1,0.5-0.2,1-0.3,1.4c-0.1,0.4-0.1,0.3-0.4,0.3c-0.5,0-0.9,0-1.4,0c-0.2,0-0.2,0-0.2-0.2
	c0.1-0.4,0.1-0.8,0.2-1.2c0.1-0.6,0.2-1.2,0.3-1.8c0-0.3,0.1-0.3,0.3-0.3c1.2,0,2.4,0,3.5,0c0.1,0,0.2,0,0.2,0
	c0.1,0,0.2-0.1,0.2-0.3c0-0.2-0.1-0.2-0.2-0.2c-0.4,0-0.7,0-1.1,0c-0.9,0-1.7,0-2.6,0C26.9,1.6,26.8,1.6,26.7,1.6L26.7,1.6z"/>
<path class="st0" d="M44.2,2.2C44.1,2.6,44.1,3,44,3.4c0,0.2-0.1,0.2-0.3,0.2c-0.8,0-1.7,0-2.5,0c-0.6,0-1.1,0-1.7,0
	c-0.1,0-0.2,0-0.2,0.1c0,0.1-0.1,0.2,0,0.3c0,0,0.1,0,0.1,0c0.1,0,0.1,0,0.2,0c1.3,0,2.7,0,4,0c0.1,0,0.1,0,0.2,0
	c0.1,0,0.1,0,0.1,0.1c-0.1,0.5-0.2,0.9-0.2,1.4c0,0.1-0.1,0.2-0.2,0.2c0,0-0.1,0-0.1,0c-1.9,0-3.8,0-5.8,0c-0.2,0-0.4,0.1-0.5-0.1
	c-0.1-0.1,0-0.3,0-0.5c0.2-0.9,0.3-1.8,0.5-2.7c0,0,0,0,0-0.1c0-0.3,0-0.3,0.3-0.3c2,0,4,0,6,0C44,2.1,44.1,2.1,44.2,2.2L44.2,2.2z"
	/>
<path class="st2" d="M6.8,2.2c0,0.3-0.1,0.6-0.2,0.9c0,0.1,0,0.2-0.1,0.3c0,0.2,0,0.2-0.3,0.2c-0.9,0-1.8,0-2.7,0
	c-0.4,0-0.8,0-1.2,0C2.3,3.6,2.2,3.9,2.2,4c0,0.1,0.1,0.1,0.1,0.1c0.1,0,0.2,0,0.3,0c1.3,0,2.6,0,3.9,0c0.2,0,0.2,0,0.2,0.2
	C6.7,4.7,6.6,5,6.6,5.4C6.5,5.7,6.5,5.7,6.2,5.7c-1.5,0-2.9,0-4.4,0c-0.5,0-1.1,0-1.6,0C0,5.7,0,5.7,0,5.5c0.2-0.9,0.3-1.8,0.5-2.7
	c0-0.1,0-0.3,0.1-0.4c0.1-0.3,0.1-0.3,0.3-0.3c0.4,0,0.8,0,1.2,0c1.5,0,3,0,4.5,0C6.7,2.1,6.8,2.1,6.8,2.2L6.8,2.2z"/>
<path class="st3" d="M9.9,0C9.8,0.4,9.8,0.8,9.7,1.2C9.5,2,9.4,2.9,9.2,3.8c0,0.2,0,0.2,0.2,0.2c1.2,0,2.4,0,3.6,0
	c0.1,0,0.1,0,0.2,0c0.1,0,0.2,0,0.1,0.2c-0.1,0.4-0.2,0.9-0.2,1.3c0,0.2-0.1,0.2-0.2,0.2c-0.2,0-0.4,0-0.5,0c-1.7,0-3.3,0-5,0
	c-0.1,0-0.1,0-0.1,0C7,5.7,7,5.7,7,5.5c0.1-0.6,0.2-1.2,0.3-1.8c0.2-1.1,0.4-2.3,0.6-3.4C7.9,0,7.9,0,8.2,0c0.5,0,1,0,1.5,0
	C9.8,0,9.8,0,9.9,0L9.9,0z"/>
<path class="st4" d="M22.6,5.7c-0.5,0-1,0-1.5,0c-0.6-0.1-1.1-0.4-1.3-1c-0.1-0.2,0-0.4,0-0.6c0-0.1,0.1-0.2,0.2-0.2
	c0.1,0,0.2,0,0.3,0c0.4,0,0.8,0,1.2,0c0.1,0,0.2,0,0.2,0.1C21.8,4,21.9,4,21.9,4c0.6,0,1.3,0,1.9,0c0.1,0,0.2,0,0.2-0.1
	c0.1-0.2,0-0.3-0.2-0.3c-0.2,0-0.5,0-0.7-0.1c-0.6,0-1.2-0.1-1.8-0.2c-0.2,0-0.3-0.1-0.5-0.1c-0.4-0.2-0.6-0.5-0.7-0.9
	c0-0.2,0-0.2,0.2-0.2c0.8,0,1.6,0,2.4,0c0.6,0,1.2,0.1,1.8,0.2c0.3,0,0.6,0.1,0.8,0.2C25.8,2.7,26,3.1,26,3.6c0,1.1-0.8,1.9-1.9,2
	C23.6,5.7,22.6,5.7,22.6,5.7z"/>
<path class="st2" d="M0.7,1.6c0.1-0.5,0.2-0.9,0.3-1.4C1,0,1,0,1.2,0c0.2,0,0.4,0,0.6,0c1.8,0,3.7,0,5.5,0c0.1,0,0.1,0,0.1,0
	c0.1,0,0.1,0,0.1,0.1c0,0.2-0.1,0.4-0.1,0.6C7.4,1,7.3,1.2,7.3,1.5c0,0.1-0.1,0.2-0.2,0.1c-0.1,0-0.3,0-0.4,0c-1.9,0-3.7,0-5.6,0
	C1,1.6,0.8,1.6,0.7,1.6L0.7,1.6z"/>
<path class="st1" d="M36.9,4.1c-0.1,0.4-0.1,0.7-0.2,1.1c0,0.2,0,0.4-0.1,0.5s-0.3,0-0.5,0c-1.6,0-3.2,0-4.8,0c-0.5,0-0.4,0-0.3-0.4
	c0.1-0.3,0.1-0.7,0.2-1c0-0.2,0-0.2,0.3-0.2c1.6,0,3.2,0,4.8,0C36.4,4.1,36.7,4.1,36.9,4.1L36.9,4.1z"/>
<path class="st1" d="M33,0h4.6c-0.1,0.5-0.2,1-0.3,1.5c0,0.1,0,0.1-0.1,0.1c-0.1,0-0.1,0-0.2,0c-1.1,0-2.2,0-3.4,0c0,0-0.1,0-0.1,0
	c-0.1,0-0.1,0-0.1-0.1c0-0.1,0-0.3,0-0.5C33.4,0.6,33.4,0.5,33,0L33,0z"/>
<path class="st1" d="M37.3,2.1c0,0.1,0,0.2,0,0.2c-0.1,0.3-0.1,0.7-0.2,1c0,0.2-0.1,0.2-0.2,0.2c-1.3,0-2.7,0-4,0c0,0,0,0-0.1,0
	c0-0.1,0-0.1,0.1-0.2c0.2-0.3,0.4-0.7,0.5-1.1c0-0.1,0.1-0.2,0.2-0.2C34.8,2.1,36,2.1,37.3,2.1C37.2,2.1,37.2,2.1,37.3,2.1L37.3,2.1
	z"/>
<path class="st4" d="M16.1,2.2c0.6,0,1.3,0,1.9,0c0.4,0,0.7,0.1,1,0.2c0.5,0.2,0.7,0.6,0.7,1.1c0,1.1-0.9,2-2,2.1c-0.5,0-1,0-1.5,0
	c-0.9,0-1.8,0-2.7,0c-0.1,0-0.2,0-0.2,0c-0.1,0-0.1-0.1,0-0.1C13.5,4,13.7,2.5,14,0.9c0-0.2,0.1-0.5,0.1-0.7c0-0.1,0.1-0.2,0.2-0.2
	c0.2,0,0.4,0,0.7,0c3.2,0,6.3,0,9.5,0c0.3,0,0.6,0,0.9,0.1c0.7,0.2,1.1,0.8,1,1.6c0,0.2,0,0.2-0.2,0.2c-0.5,0-1,0-1.6,0
	c-0.1,0-0.2,0-0.2-0.1c0-0.1-0.1-0.1-0.2-0.1c-0.2,0-0.3,0-0.5,0c-2.3,0-4.6,0-7,0c-0.3,0-0.6,0-0.8,0c-0.1,0-0.1,0-0.1,0.1
	c0,0.1-0.1,0.3-0.1,0.4C15.8,2.2,16,2.2,16.1,2.2z M16.6,3.5c-0.1,0-0.2,0-0.4,0c-0.1,0-0.3,0-0.4,0c-0.2,0-0.4,0.1-0.4,0.3
	c0,0.2,0,0.2,0.2,0.2c0.6,0,1.2,0,1.7,0c0.1,0,0.1,0,0.2,0c0.1,0,0.3-0.2,0.3-0.3c0-0.1-0.1-0.2-0.3-0.2C17.2,3.5,16.6,3.5,16.6,3.5
	z"/>
</svg>
