<?xml version="1.0" encoding="UTF-8"?>
<svg id="a" data-name="Layer 1" xmlns="http://www.w3.org/2000/svg" viewBox="0 0 25 25">
  <defs>
    <style>
      .e, .f, .g, .h {
        stroke-width: 0px;
      }

      .f {
        fill: #ff004f;
      }

      .f, .g, .h {
        fill-rule: evenodd;
      }

      .g {
        fill: #00f7ef;
      }

      .h {
        fill: #fff;
      }
    </style>
  </defs>
  <circle class="e" cx="12.5" cy="12.5" r="12.5"/>
  <g>
    <path id="b" data-name="Blue" class="g" d="m7.54,18.26c-3.11-2.7-1.1-8.7,3.68-7.95v.56c-4.04-.19-5.81,4.63-3.68,7.39Zm8.72-10.42c.49.39,1.17.68,2.1.74v.55c-1.03-.19-1.69-.7-2.1-1.28Zm-1.3-2.87c0,.2.03.42.06.61h-1.91v9.48c0,.44-.05.83-.13,1.17-.78,1.71-2.97,1.49-3.58.31.9.57,2.39.42,3-.93.09-.34.13-.73.13-1.17V4.98h2.43Z"/>
    <path id="c" data-name="Black" class="h" d="m15.55,5.59h0c0,.23.07,3.41,3.4,3.6,0,2.95,0,0,0,2.45-.25.02-2.19-.13-3.4-1.2v4.78c.03,2.16-1.18,4.28-3.43,4.71-.63.12-1.2.13-2.15-.08-5.5-1.65-3.67-9.8,1.85-8.93,0,2.63,0,0,0,2.63-2.28-.34-3.04,1.56-2.44,2.92.55,1.24,2.82,1.5,3.62-.24.09-.34.13-.73.13-1.17V5.59h2.43Z"/>
    <path id="d" data-name="Red" class="f" d="m11.23,10.87c.19,0,.38.03.58.06,0,2.63,0,0,0,2.63-2.28-.34-3.04,1.56-2.44,2.92.01.02.02.05.04.07-.27-.17-.49-.4-.62-.69-.61-1.36.16-3.26,2.44-2.92,0-2.41,0-.4,0-2.08Zm7.14-1.74c.18.03.38.06.58.07,0,2.95,0,0,0,2.45-.25.01-2.19-.13-3.4-1.2v4.78c.03,2.16-1.18,4.28-3.43,4.71-.63.12-1.2.13-2.15-.08-1.07-.32-1.87-.89-2.41-1.6.48.42,1.09.76,1.83.98.95.21,1.52.19,2.15.07,2.25-.43,3.46-2.55,3.43-4.71v-4.78c1.21,1.08,3.16,1.22,3.41,1.2,0-2.28,0,.11,0-1.91Zm-2.82-3.54h0c0,.14.02,1.29.72,2.25-.83-.67-1.13-1.63-1.24-2.25h.52Z"/>
  </g>
</svg>